<?xml version="1.0" standalone="no" ?>
<!DOCTYPE svg PUBLIC "-//W3C//DTD SVG 20010904//EN"
  "http://www.w3.org/TR/2001/REC-SVG-20010904/DTD/svg10.dtd">
<svg
  version="1.0"
  xmlns="http://www.w3.org/2000/svg"
  width="96.000000pt"
  height="96.000000pt"
  viewBox="0 0 96.000000 96.000000"
  preserveAspectRatio="xMidYMid meet"
>
<g
    transform="translate(0.000000,96.000000) scale(0.100000,-0.100000)"
    fill="#FFFFFF"
    stroke="none"
  >
<path
      d="M352 868 c-7 -7 -12 -25 -12 -40 0 -23 -7 -31 -37 -43 -50 -21 -101
-70 -124 -120 -15 -33 -19 -65 -19 -190 l0 -151 -40 -39 c-24 -23 -40 -48 -40
-62 0 -23 1 -23 120 -23 l120 0 0 -40 c0 -27 7 -47 20 -60 13 -13 33 -20 60
-20 45 0 46 3 25 53 -8 20 -15 61 -15 92 l0 55 -86 0 -86 0 3 158 c4 136 7
162 25 192 30 51 78 80 133 80 84 0 143 -57 156 -150 l7 -48 39 16 c37 14 39
18 39 56 -1 80 -63 167 -142 201 -31 12 -38 20 -38 43 0 15 -5 33 -12 40 -16
16 -80 16 -96 0z"
    />
<path
      d="M615 461 c-87 -40 -135 -120 -135 -223 1 -142 97 -238 240 -238 144
0 240 96 240 240 0 104 -53 187 -142 224 -52 22 -153 20 -203 -3z m183 -91
c130 -79 74 -280 -78 -280 -152 0 -208 201 -78 280 43 26 113 26 156 0z"
    />
<path
      d="M680 320 l0 -40 -40 0 -40 0 0 -40 0 -40 40 0 40 0 0 -40 0 -40 40 0
40 0 0 40 0 40 40 0 40 0 0 40 0 40 -40 0 -40 0 0 40 0 40 -40 0 -40 0 0 -40z"
    />
</g>
</svg>